<?xml version="1.0" encoding="UTF-8" standalone="no"?>
<!-- Created with Inkscape (http://www.inkscape.org/) -->
<svg xmlns:dc="http://purl.org/dc/elements/1.1/" xmlns:cc="http://creativecommons.org/ns#" xmlns:rdf="http://www.w3.org/1999/02/22-rdf-syntax-ns#" xmlns:svg="http://www.w3.org/2000/svg" xmlns="http://www.w3.org/2000/svg" xmlns:xlink="http://www.w3.org/1999/xlink" xmlns:sodipodi="http://sodipodi.sourceforge.net/DTD/sodipodi-0.dtd" xmlns:inkscape="http://www.inkscape.org/namespaces/inkscape" width="496.06299" height="166.53543" id="svg2" version="1.1" inkscape:version="0.48.0 r9654" sodipodi:docname="CAN telegramm.svg">
  <defs id="defs4">
    <linearGradient id="linearGradient4303">
      <stop style="stop-color:#000000;stop-opacity:0.19704433;" offset="0" id="stop4305"/>
      <stop style="stop-color:#000000;stop-opacity:0;" offset="1" id="stop4307"/>
    </linearGradient>
    <marker inkscape:stockid="DotM" orient="auto" refY="0" refX="0" id="DotM" style="overflow:visible">
      <path id="path4067" d="m -2.5,-1 c 0,2.76 -2.24,5 -5,5 -2.76,0 -5,-2.24 -5,-5 0,-2.76 2.24,-5 5,-5 2.76,0 5,2.24 5,5 z" style="fill-rule:evenodd;stroke:#000000;stroke-width:1pt;marker-start:none;marker-end:none" transform="matrix(0.4,0,0,0.4,2.96,0.4)" inkscape:connector-curvature="0"/>
    </marker>
    <marker inkscape:stockid="DotL" orient="auto" refY="0" refX="0" id="DotL" style="overflow:visible">
      <path id="path4064" d="m -2.5,-1 c 0,2.76 -2.24,5 -5,5 -2.76,0 -5,-2.24 -5,-5 0,-2.76 2.24,-5 5,-5 2.76,0 5,2.24 5,5 z" style="fill-rule:evenodd;stroke:#000000;stroke-width:1pt;marker-start:none;marker-end:none" transform="matrix(0.8,0,0,0.8,5.92,0.8)" inkscape:connector-curvature="0"/>
    </marker>
    <marker inkscape:stockid="Arrow1Mend" orient="auto" refY="0" refX="0" id="Arrow1Mend" style="overflow:visible">
      <path id="path4011" d="M 0,0 5,-5 -12.5,0 5,5 0,0 z" style="fill-rule:evenodd;stroke:#000000;stroke-width:1pt;marker-start:none" transform="matrix(-0.4,0,0,-0.4,-4,0)" inkscape:connector-curvature="0"/>
    </marker>
    <marker inkscape:stockid="Arrow1Mend" orient="auto" refY="0" refX="0" id="Arrow1Mend-1" style="overflow:visible">
      <path inkscape:connector-curvature="0" id="path4011-0" d="M 0,0 5,-5 -12.5,0 5,5 0,0 z" style="fill-rule:evenodd;stroke:#000000;stroke-width:1pt;marker-start:none" transform="matrix(-0.4,0,0,-0.4,-4,0)"/>
    </marker>
    <marker inkscape:stockid="Arrow1Mend" orient="auto" refY="0" refX="0" id="Arrow1Mend-3" style="overflow:visible">
      <path inkscape:connector-curvature="0" id="path4011-7" d="M 0,0 5,-5 -12.5,0 5,5 0,0 z" style="fill-rule:evenodd;stroke:#000000;stroke-width:1pt;marker-start:none" transform="matrix(-0.4,0,0,-0.4,-4,0)"/>
    </marker>
    <marker inkscape:stockid="Arrow1Mend" orient="auto" refY="0" refX="0" id="Arrow1Mend-5" style="overflow:visible">
      <path id="path4011-09" d="M 0,0 5,-5 -12.5,0 5,5 0,0 z" style="fill-rule:evenodd;stroke:#000000;stroke-width:1pt;marker-start:none" transform="matrix(-0.4,0,0,-0.4,-4,0)" inkscape:connector-curvature="0"/>
    </marker>
    <marker inkscape:stockid="Arrow1Mend" orient="auto" refY="0" refX="0" id="Arrow1Mend-56" style="overflow:visible">
      <path id="path4011-6" d="M 0,0 5,-5 -12.5,0 5,5 0,0 z" style="fill-rule:evenodd;stroke:#000000;stroke-width:1pt;marker-start:none" transform="matrix(-0.4,0,0,-0.4,-4,0)" inkscape:connector-curvature="0"/>
    </marker>
    <marker inkscape:stockid="Arrow1Mend" orient="auto" refY="0" refX="0" id="Arrow1Mend-0" style="overflow:visible">
      <path id="path4011-04" d="M 0,0 5,-5 -12.5,0 5,5 0,0 z" style="fill-rule:evenodd;stroke:#000000;stroke-width:1pt;marker-start:none" transform="matrix(-0.4,0,0,-0.4,-4,0)" inkscape:connector-curvature="0"/>
    </marker>
    <marker inkscape:stockid="Arrow1Mend" orient="auto" refY="0" refX="0" id="Arrow1Mend-6" style="overflow:visible">
      <path id="path4011-75" d="M 0,0 5,-5 -12.5,0 5,5 0,0 z" style="fill-rule:evenodd;stroke:#000000;stroke-width:1pt;marker-start:none" transform="matrix(-0.4,0,0,-0.4,-4,0)" inkscape:connector-curvature="0"/>
    </marker>
    <marker inkscape:stockid="Arrow1Mend" orient="auto" refY="0" refX="0" id="Arrow1Mend-4" style="overflow:visible">
      <path id="path4011-9" d="M 0,0 5,-5 -12.5,0 5,5 0,0 z" style="fill-rule:evenodd;stroke:#000000;stroke-width:1pt;marker-start:none" transform="matrix(-0.4,0,0,-0.4,-4,0)" inkscape:connector-curvature="0"/>
    </marker>
    <marker inkscape:stockid="Arrow1Mend" orient="auto" refY="0" refX="0" id="Arrow1Mend-02" style="overflow:visible">
      <path id="path4011-94" d="M 0,0 5,-5 -12.5,0 5,5 0,0 z" style="fill-rule:evenodd;stroke:#000000;stroke-width:1pt;marker-start:none" transform="matrix(-0.4,0,0,-0.4,-4,0)" inkscape:connector-curvature="0"/>
    </marker>
    <linearGradient inkscape:collect="always" xlink:href="#linearGradient4303" id="linearGradient3128" gradientUnits="userSpaceOnUse" gradientTransform="translate(-1272.1599,-258.77264)" x1="287.00793" y1="832.60022" x2="287.00793" y2="882.20654"/>
  </defs>
  <sodipodi:namedview id="base" pagecolor="#ffffff" bordercolor="#666666" borderopacity="1.0" inkscape:pageopacity="0.0" inkscape:pageshadow="2" inkscape:zoom="2.8284272" inkscape:cx="144.71747" inkscape:cy="82.228376" inkscape:document-units="mm" inkscape:current-layer="layer1" showgrid="false" units="mm" inkscape:window-width="1366" inkscape:window-height="748" inkscape:window-x="-2" inkscape:window-y="-3" inkscape:window-maximized="1" fit-margin-top="0" fit-margin-left="0" fit-margin-right="0" fit-margin-bottom="0">
    <inkscape:grid type="xygrid" id="grid2989" empspacing="10" visible="true" enabled="true" snapvisiblegridlinesonly="true" units="mm" spacingx="0.5mm" spacingy="0.5mm"/>
  </sodipodi:namedview>
  <metadata id="metadata7">
    <rdf:RDF>
      <cc:Work rdf:about="">
        <dc:format>image/svg+xml</dc:format>
        <dc:type rdf:resource="http://purl.org/dc/dcmitype/StillImage"/>
        <dc:title/>
      </cc:Work>
    </rdf:RDF>
  </metadata>
  <g inkscape:label="Ebene 1" inkscape:groupmode="layer" id="layer1" transform="translate(-127.37088,-818.61646)">
    <text xml:space="preserve" style="font-size:40px;font-style:normal;font-weight:normal;line-height:125%;letter-spacing:0px;word-spacing:0px;fill:#000000;fill-opacity:1;stroke:none;font-family:Sans" x="134.85944" y="280.93359" id="text2985" sodipodi:linespacing="125%"><tspan sodipodi:role="line" id="tspan2987" x="134.85944" y="280.93359" style="font-style:normal;font-variant:normal;font-weight:bold;font-stretch:normal;font-family:LMSans8;-inkscape-font-specification:LMSans8 Bold"/></text>
    <rect id="rect3761-0-4" width="106.29922" height="10.629933" x="-984.9624" y="173.62204" style="fill:#000000;fill-opacity:0.19607843;stroke:none" transform="matrix(0,-1,1,0,0,0)"/>
    <text xml:space="preserve" style="font-size:10px;font-style:normal;font-variant:normal;font-weight:normal;font-stretch:normal;text-align:center;line-height:125%;letter-spacing:0px;word-spacing:0px;text-anchor:middle;fill:#000000;fill-opacity:1;stroke:none;font-family:LMSans8;-inkscape-font-specification:LMSans8" x="-931.88452" y="182.40701" id="text3794-0-9" sodipodi:linespacing="125%" transform="matrix(0,-1,1,0,0,0)"><tspan sodipodi:role="line" id="tspan3796-8-4" x="-931.88452" y="182.40701">Start of frame</tspan></text>
    <rect style="fill:none;stroke:#000000;stroke-width:0.35433072;stroke-miterlimit:4;stroke-opacity:1;stroke-dasharray:none" id="rect3877" width="17.716536" height="10.629921" x="-868.22272" y="173.43401" transform="matrix(0,-1,1,0,0,0)"/>
    <text xml:space="preserve" style="font-size:10px;font-style:normal;font-variant:normal;font-weight:normal;font-stretch:normal;text-align:center;line-height:125%;letter-spacing:0px;word-spacing:0px;text-anchor:middle;fill:#000000;fill-opacity:1;stroke:none;font-family:LMSans10;-inkscape-font-specification:LMSans10" x="178.68396" y="862.75446" id="text3879" sodipodi:linespacing="125%"><tspan sodipodi:role="line" id="tspan3881" x="178.68396" y="862.75446">1</tspan></text>
    <rect style="fill:#000000;fill-opacity:0.19607843;stroke:none" y="233.85829" x="-984.96252" height="10.629933" width="106.29922" id="rect4122" transform="matrix(0,-1,1,0,0,0)"/>
    <text sodipodi:linespacing="125%" id="text4124" y="242.64326" x="-931.88464" style="font-size:10px;font-style:normal;font-variant:normal;font-weight:normal;font-stretch:normal;text-align:center;line-height:125%;letter-spacing:0px;word-spacing:0px;text-anchor:middle;fill:#000000;fill-opacity:1;stroke:none;font-family:LMSans8;-inkscape-font-specification:LMSans8" xml:space="preserve" transform="matrix(0,-1,1,0,0,0)"><tspan style="font-style:normal;font-variant:normal;font-weight:normal;font-stretch:normal;font-family:LMSans10;-inkscape-font-specification:LMSans10" y="242.64326" x="-931.88464" id="tspan4126" sodipodi:role="line">Remote transmission bit</tspan></text>
    <rect transform="matrix(0,-1,1,0,0,0)" y="233.67026" x="-868.22278" height="10.629921" width="17.716536" id="rect4128" style="fill:none;stroke:#000000;stroke-width:0.35433072;stroke-miterlimit:4;stroke-opacity:1;stroke-dasharray:none"/>
    <text sodipodi:linespacing="125%" id="text4130" y="862.75458" x="238.92021" style="font-size:10px;font-style:normal;font-variant:normal;font-weight:normal;font-stretch:normal;text-align:center;line-height:125%;letter-spacing:0px;word-spacing:0px;text-anchor:middle;fill:#000000;fill-opacity:1;stroke:none;font-family:LMSans10;-inkscape-font-specification:LMSans10" xml:space="preserve"><tspan y="862.75458" x="238.92021" id="tspan4132" sodipodi:role="line">1</tspan></text>
    <rect style="fill:#000000;fill-opacity:0.19607843;stroke:none" y="301.18137" x="-984.9624" height="134.64493" width="106.29919" id="rect4066" transform="matrix(0,-1,1,0,0,0)"/>
    <rect transform="matrix(0,-1,1,0,0,0)" y="300.99387" x="-868.22278" height="134.64478" width="17.716532" id="rect4072" style="fill:none;stroke:#000000;stroke-width:0.35433069;stroke-miterlimit:4;stroke-opacity:1;stroke-dasharray:none"/>
    <text transform="scale(3.5590148,0.28097664)" sodipodi:linespacing="125%" id="text4074" y="3044.6602" x="103.30977" style="font-size:10.06503391px;font-style:normal;font-variant:normal;font-weight:normal;font-stretch:normal;text-align:center;line-height:125%;letter-spacing:0px;word-spacing:0px;text-anchor:middle;fill:#000000;fill-opacity:1;stroke:none;font-family:LMSans10;-inkscape-font-specification:LMSans10" xml:space="preserve"><tspan style="font-size:10.06503391px;line-height:100%" y="3044.6602" x="103.30977" id="tspan4076" sodipodi:role="line"/></text>
    <text sodipodi:linespacing="125%" id="text4218-9" y="862.64447" x="368.25085" style="font-size:10px;font-style:normal;font-variant:normal;font-weight:normal;font-stretch:normal;text-align:center;line-height:125%;letter-spacing:0px;word-spacing:0px;text-anchor:middle;fill:#000000;fill-opacity:1;stroke:none;font-family:LMSans10;-inkscape-font-specification:LMSans10" xml:space="preserve"><tspan y="862.64447" x="368.25085" id="tspan4220-5" sodipodi:role="line">0...64</tspan></text>
    <text transform="matrix(0,-1,1,0,0,0)" sodipodi:linespacing="125%" id="text4218-9-8" y="371.97357" x="-931.87488" style="font-size:10px;font-style:normal;font-variant:normal;font-weight:normal;font-stretch:normal;text-align:center;line-height:125%;letter-spacing:0px;word-spacing:0px;text-anchor:middle;fill:#000000;fill-opacity:1;stroke:none;font-family:LMSans10;-inkscape-font-specification:LMSans10" xml:space="preserve"><tspan y="371.97357" x="-931.87488" id="tspan4220-5-07" sodipodi:role="line">Data field</tspan></text>
    <rect id="rect4108" width="106.29922" height="10.629933" x="-984.9624" y="499.60629" style="fill:#000000;fill-opacity:0.19607843;stroke:none" transform="matrix(0,-1,1,0,0,0)"/>
    <text xml:space="preserve" style="font-size:10px;font-style:normal;font-variant:normal;font-weight:normal;font-stretch:normal;text-align:center;line-height:125%;letter-spacing:0px;word-spacing:0px;text-anchor:middle;fill:#000000;fill-opacity:1;stroke:none;font-family:LMSans8;-inkscape-font-specification:LMSans8" x="-931.88452" y="508.39124" id="text4110" sodipodi:linespacing="125%" transform="matrix(0,-1,1,0,0,0)"><tspan style="font-style:normal;font-variant:normal;font-weight:normal;font-stretch:normal;font-family:LMSans10;-inkscape-font-specification:LMSans10" sodipodi:role="line" id="tspan4112" x="-931.88452" y="508.39124">CRC-Delimiter</tspan></text>
    <rect style="fill:none;stroke:#000000;stroke-width:0.35433072;stroke-miterlimit:4;stroke-opacity:1;stroke-dasharray:none" id="rect4114" width="17.716536" height="10.629921" x="-868.22272" y="499.41827" transform="matrix(0,-1,1,0,0,0)"/>
    <text xml:space="preserve" style="font-size:10px;font-style:normal;font-variant:normal;font-weight:normal;font-stretch:normal;text-align:center;line-height:125%;letter-spacing:0px;word-spacing:0px;text-anchor:middle;fill:#000000;fill-opacity:1;stroke:none;font-family:LMSans10;-inkscape-font-specification:LMSans10" x="504.66821" y="862.75446" id="text4116" sodipodi:linespacing="125%"><tspan sodipodi:role="line" id="tspan4118" x="504.66821" y="862.75446">1</tspan></text>
    <rect id="rect4094" width="106.29922" height="10.629933" x="-984.9624" y="255.11813" style="fill:#000000;fill-opacity:0.19607843;stroke:none" transform="matrix(0,-1,1,0,0,0)"/>
    <text xml:space="preserve" style="font-size:10px;font-style:normal;font-variant:normal;font-weight:normal;font-stretch:normal;text-align:center;line-height:125%;letter-spacing:0px;word-spacing:0px;text-anchor:middle;fill:#000000;fill-opacity:1;stroke:none;font-family:LMSans8;-inkscape-font-specification:LMSans8" x="-931.88452" y="263.90311" id="text4096" sodipodi:linespacing="125%" transform="matrix(0,-1,1,0,0,0)"><tspan style="font-style:normal;font-variant:normal;font-weight:normal;font-stretch:normal;font-family:LMSans10;-inkscape-font-specification:LMSans10" sodipodi:role="line" id="tspan4098" x="-931.88452" y="263.90311">reserved</tspan></text>
    <rect style="fill:none;stroke:#000000;stroke-width:0.35433072;stroke-miterlimit:4;stroke-opacity:1;stroke-dasharray:none" id="rect4100" width="17.716536" height="10.629921" x="-868.22272" y="254.93008" transform="matrix(0,-1,1,0,0,0)"/>
    <text xml:space="preserve" style="font-size:10px;font-style:normal;font-variant:normal;font-weight:normal;font-stretch:normal;text-align:center;line-height:125%;letter-spacing:0px;word-spacing:0px;text-anchor:middle;fill:#000000;fill-opacity:1;stroke:none;font-family:LMSans10;-inkscape-font-specification:LMSans10" x="260.18005" y="862.75446" id="text4102" sodipodi:linespacing="125%"><tspan sodipodi:role="line" id="tspan4104" x="260.18005" y="862.75446">1</tspan></text>
    <rect id="rect4080" width="106.29922" height="10.629933" x="-984.9624" y="244.4882" style="fill:none;stroke:none" transform="matrix(0,-1,1,0,0,0)"/>
    <text xml:space="preserve" style="font-size:10px;font-style:normal;font-variant:normal;font-weight:normal;font-stretch:normal;text-align:center;line-height:125%;letter-spacing:0px;word-spacing:0px;text-anchor:middle;fill:#000000;fill-opacity:1;stroke:none;font-family:LMSans8;-inkscape-font-specification:LMSans8" x="-931.88452" y="253.27316" id="text4082" sodipodi:linespacing="125%" transform="matrix(0,-1,1,0,0,0)"><tspan style="font-style:normal;font-variant:normal;font-weight:normal;font-stretch:normal;font-family:LMSans10;-inkscape-font-specification:LMSans10" sodipodi:role="line" id="tspan4084" x="-931.88452" y="253.27316">Identifier extension bit</tspan></text>
    <rect style="fill:none;stroke:#000000;stroke-width:0.35433072;stroke-miterlimit:4;stroke-opacity:1;stroke-dasharray:none" id="rect4086" width="17.716536" height="10.629921" x="-868.22272" y="244.30017" transform="matrix(0,-1,1,0,0,0)"/>
    <text xml:space="preserve" style="font-size:10px;font-style:normal;font-variant:normal;font-weight:normal;font-stretch:normal;text-align:center;line-height:125%;letter-spacing:0px;word-spacing:0px;text-anchor:middle;fill:#000000;fill-opacity:1;stroke:none;font-family:LMSans10;-inkscape-font-specification:LMSans10" x="249.55011" y="862.75446" id="text4088" sodipodi:linespacing="125%"><tspan sodipodi:role="line" id="tspan4090" x="249.55011" y="862.75446">1</tspan></text>
    <rect style="fill:none;stroke:none" y="531.49609" x="-984.9624" height="42.519634" width="106.29922" id="rect4164" transform="matrix(0,-1,1,0,0,0)"/>
    <rect transform="matrix(0,-1,1,0,0,0)" y="531.30823" x="-868.22272" height="42.519585" width="17.716536" id="rect4170" style="fill:none;stroke:#000000;stroke-width:0.35433072;stroke-miterlimit:4;stroke-opacity:1;stroke-dasharray:none"/>
    <text sodipodi:linespacing="125%" id="text4218-9-7" y="862.58948" x="552.57294" style="font-size:10px;font-style:normal;font-variant:normal;font-weight:normal;font-stretch:normal;text-align:center;line-height:125%;letter-spacing:0px;word-spacing:0px;text-anchor:middle;fill:#000000;fill-opacity:1;stroke:none;font-family:LMSans10;-inkscape-font-specification:LMSans10" xml:space="preserve"><tspan y="862.58948" x="552.57294" id="tspan4220-5-0" sodipodi:role="line">7</tspan></text>
    <text transform="matrix(0,-1,1,0,0,0)" sodipodi:linespacing="125%" id="text4397-96" y="556.22589" x="-932.13599" style="font-size:9.99999905px;font-style:normal;font-variant:normal;font-weight:normal;font-stretch:normal;text-align:center;line-height:125%;letter-spacing:0px;word-spacing:0px;text-anchor:middle;fill:#000000;fill-opacity:1;stroke:none;font-family:LMSans10;-inkscape-font-specification:LMSans10" xml:space="preserve"><tspan y="556.22589" x="-932.13599" id="tspan4399-1" sodipodi:role="line">End of frame</tspan></text>
    <rect id="rect4178" width="106.29922" height="10.629933" x="-984.9624" y="520.86609" style="fill:#000000;fill-opacity:0.19607843;stroke:none" transform="matrix(0,-1,1,0,0,0)"/>
    <text xml:space="preserve" style="font-size:10px;font-style:normal;font-variant:normal;font-weight:normal;font-stretch:normal;text-align:center;line-height:125%;letter-spacing:0px;word-spacing:0px;text-anchor:middle;fill:#000000;fill-opacity:1;stroke:none;font-family:LMSans8;-inkscape-font-specification:LMSans8" x="-931.88452" y="529.65106" id="text4180" sodipodi:linespacing="125%" transform="matrix(0,-1,1,0,0,0)"><tspan style="font-style:normal;font-variant:normal;font-weight:normal;font-stretch:normal;font-family:LMSans10;-inkscape-font-specification:LMSans10" sodipodi:role="line" id="tspan4182" x="-931.88452" y="529.65106">ACK-Delimiter</tspan></text>
    <rect style="fill:none;stroke:#000000;stroke-width:0.35433072;stroke-miterlimit:4;stroke-opacity:1;stroke-dasharray:none" id="rect4184" width="17.716536" height="10.629921" x="-868.22272" y="520.67804" transform="matrix(0,-1,1,0,0,0)"/>
    <text xml:space="preserve" style="font-size:10px;font-style:normal;font-variant:normal;font-weight:normal;font-stretch:normal;text-align:center;line-height:125%;letter-spacing:0px;word-spacing:0px;text-anchor:middle;fill:#000000;fill-opacity:1;stroke:none;font-family:LMSans10;-inkscape-font-specification:LMSans10" x="525.92798" y="862.75446" id="text4186" sodipodi:linespacing="125%"><tspan sodipodi:role="line" id="tspan4188" x="525.92798" y="862.75446">1</tspan></text>
    <rect style="fill:none;stroke:none" y="510.23621" x="-984.9624" height="10.629933" width="106.29922" id="rect4192" transform="matrix(0,-1,1,0,0,0)"/>
    <text sodipodi:linespacing="125%" id="text4194" y="519.02112" x="-931.88452" style="font-size:10px;font-style:normal;font-variant:normal;font-weight:normal;font-stretch:normal;text-align:center;line-height:125%;letter-spacing:0px;word-spacing:0px;text-anchor:middle;fill:#000000;fill-opacity:1;stroke:none;font-family:LMSans8;-inkscape-font-specification:LMSans8" xml:space="preserve" transform="matrix(0,-1,1,0,0,0)"><tspan style="font-style:normal;font-variant:normal;font-weight:normal;font-stretch:normal;font-family:LMSans10;-inkscape-font-specification:LMSans10" y="519.02112" x="-931.88452" id="tspan4196" sodipodi:role="line">ACK-Slot</tspan></text>
    <rect transform="matrix(0,-1,1,0,0,0)" y="510.04816" x="-868.22272" height="10.629921" width="17.716536" id="rect4198" style="fill:none;stroke:#000000;stroke-width:0.35433072;stroke-miterlimit:4;stroke-opacity:1;stroke-dasharray:none"/>
    <text sodipodi:linespacing="125%" id="text4200" y="862.75446" x="515.2981" style="font-size:10px;font-style:normal;font-variant:normal;font-weight:normal;font-stretch:normal;text-align:center;line-height:125%;letter-spacing:0px;word-spacing:0px;text-anchor:middle;fill:#000000;fill-opacity:1;stroke:none;font-family:LMSans10;-inkscape-font-specification:LMSans10" xml:space="preserve"><tspan y="862.75446" x="515.2981" id="tspan4202" sodipodi:role="line">1</tspan></text>
    <rect id="rect4206" width="106.29922" height="49.606247" x="-984.96252" y="574.01575" style="fill:url(#linearGradient3128);fill-opacity:1;stroke:none" transform="matrix(0,-1,1,0,0,0)"/>
    <text xml:space="preserve" style="font-size:10px;font-style:normal;font-variant:normal;font-weight:normal;font-stretch:normal;text-align:center;line-height:125%;letter-spacing:0px;word-spacing:0px;text-anchor:middle;fill:#000000;fill-opacity:1;stroke:none;font-family:LMSans8;-inkscape-font-specification:LMSans8" x="-931.88464" y="582.80072" id="text4208" sodipodi:linespacing="125%" transform="matrix(0,-1,1,0,0,0)"><tspan sodipodi:role="line" id="tspan4210" x="-931.88464" y="582.80072">Inter frame space</tspan></text>
    <rect style="fill:none;stroke:none" y="435.82669" x="-984.9624" height="63.779663" width="106.29922" id="rect4164-4" transform="matrix(0,-1,1,0,0,0)"/>
    <rect transform="matrix(0,-1,1,0,0,0)" y="435.63885" x="-868.22272" height="63.779591" width="17.716536" id="rect4170-0" style="fill:none;stroke:#000000;stroke-width:0.35433072;stroke-miterlimit:4;stroke-opacity:1;stroke-dasharray:none"/>
    <text sodipodi:linespacing="125%" id="text4218-9-5" y="862.58948" x="467.53354" style="font-size:10px;font-style:normal;font-variant:normal;font-weight:normal;font-stretch:normal;text-align:center;line-height:125%;letter-spacing:0px;word-spacing:0px;text-anchor:middle;fill:#000000;fill-opacity:1;stroke:none;font-family:LMSans10;-inkscape-font-specification:LMSans10" xml:space="preserve"><tspan y="862.58948" x="467.53354" id="tspan4220-5-5" sodipodi:role="line">15</tspan></text>
    <text transform="matrix(0,-1,1,0,0,0)" sodipodi:linespacing="100%" id="text4397-9" y="461.19183" x="-932.06818" style="font-size:9.99999905px;font-style:normal;font-variant:normal;font-weight:normal;font-stretch:normal;text-align:center;line-height:100%;letter-spacing:0px;word-spacing:0px;text-anchor:middle;fill:#000000;fill-opacity:1;stroke:none;font-family:LMSans10;-inkscape-font-specification:LMSans10" xml:space="preserve"><tspan style="line-height:100%" y="461.19183" x="-932.06818" id="tspan4399-0" sodipodi:role="line">CRC</tspan><tspan id="tspan4451" style="line-height:100%" y="471.19183" x="-932.06818" sodipodi:role="line">Cyclic redundancy</tspan><tspan id="tspan4453" style="line-height:100%" y="481.19183" x="-932.06818" sodipodi:role="line">checksum</tspan></text>
    <rect style="fill:none;stroke:none" y="184.25182" x="-984.9624" height="49.606354" width="106.29919" id="rect4164-1" transform="matrix(0,-1,1,0,0,0)"/>
    <rect y="184.06412" x="-868.22278" height="49.606297" width="17.716532" id="rect4170-7" style="fill:none;stroke:#000000;stroke-width:0.35433075;stroke-miterlimit:4;stroke-opacity:1;stroke-dasharray:none" transform="matrix(0,-1,1,0,0,0)"/>
    <text sodipodi:linespacing="125%" id="text4389" y="862.75452" x="208.80214" style="font-size:9.99999905px;font-style:normal;font-variant:normal;font-weight:normal;font-stretch:normal;text-align:center;line-height:125%;letter-spacing:0px;word-spacing:0px;text-anchor:middle;fill:#000000;fill-opacity:1;stroke:none;font-family:LMSans10;-inkscape-font-specification:LMSans10" xml:space="preserve"><tspan y="862.75452" x="208.80214" id="tspan4391" sodipodi:role="line">11</tspan></text>
    <text transform="matrix(0,-1,1,0,0,0)" sodipodi:linespacing="125%" id="text4397" y="205.24512" x="-932.23877" style="font-size:9.99999905px;font-style:normal;font-variant:normal;font-weight:normal;font-stretch:normal;text-align:center;line-height:125%;letter-spacing:0px;word-spacing:0px;text-anchor:middle;fill:#000000;fill-opacity:1;stroke:none;font-family:LMSans10;-inkscape-font-specification:LMSans10" xml:space="preserve"><tspan y="205.24512" x="-932.23877" id="tspan4399" sodipodi:role="line">ID</tspan><tspan id="tspan3108" y="217.74512" x="-932.23877" sodipodi:role="line">Message identifier</tspan></text>
    <path sodipodi:nodetypes="ccccccccccccccccccccc" inkscape:connector-curvature="0" id="path3186" d="m 136.22915,822.15978 35.43307,1e-5 3.54331,17.71653 7.08661,0 3.54331,-17.71653 46.06299,0 3.54331,17.71653 28.34646,0 3.5433,-17.71653 31.88977,0 3.5433,17.71653 131.10237,0 3.5433,-17.71653 60.23623,0 1.77165,8.85827 1.77165,-8.85827 7.08662,0 3.5433,17.71653 7.08662,0 3.54331,-17.71653 100.98425,0" style="fill:none;stroke:#000000;stroke-width:0.88582677;stroke-linecap:butt;stroke-linejoin:round;stroke-miterlimit:4;stroke-opacity:1;stroke-dasharray:none"/>
    <path inkscape:connector-curvature="0" id="path4022" d="m 184.06378,831.01805 1.77165,8.85827 46.06299,0 1.77166,-8.85827 1.77165,8.85827 28.34646,0 1.77165,-8.85827 1.77165,8.85827 31.88977,0 3.54331,-17.71654 131.10236,0 3.5433,17.71654 60.23623,0 3.5433,-17.71654 7.08662,0 1.77165,8.85827 1.77165,-8.85827 7.08662,0 1.77165,8.85827" style="fill:none;stroke:#000000;stroke-width:0.88582676999999999;stroke-linecap:butt;stroke-linejoin:round;stroke-miterlimit:4;stroke-opacity:1;stroke-dasharray:none"/>
    <text sodipodi:linespacing="125%" id="text4024" y="862.75446" x="127.37096" style="font-size:9.99999905px;font-style:normal;font-variant:normal;font-weight:normal;font-stretch:normal;line-height:125%;letter-spacing:0px;word-spacing:0px;fill:#000000;fill-opacity:1;stroke:none;font-family:LMSans10;-inkscape-font-specification:LMSans10" xml:space="preserve"><tspan y="862.75446" x="127.37096" id="tspan4026" sodipodi:role="line">Bits</tspan></text>
    <rect style="fill:none;stroke:none" y="265.74789" x="-984.9624" height="35.433132" width="106.29919" id="rect4164-8" transform="matrix(0,-1,1,0,0,0)"/>
    <rect transform="matrix(0,-1,1,0,0,0)" y="265.55997" x="-868.22278" height="35.43309" width="17.716532" id="rect4170-2" style="fill:none;stroke:#000000;stroke-width:0.35433072;stroke-miterlimit:4;stroke-opacity:1;stroke-dasharray:none"/>
    <text sodipodi:linespacing="125%" id="text4393" y="862.64447" x="283.28149" style="font-size:10px;font-style:normal;font-variant:normal;font-weight:normal;font-stretch:normal;text-align:center;line-height:125%;letter-spacing:0px;word-spacing:0px;text-anchor:middle;fill:#000000;fill-opacity:1;stroke:none;font-family:LMSans10;-inkscape-font-specification:LMSans10" xml:space="preserve"><tspan y="862.64447" x="283.28149" id="tspan4395" sodipodi:role="line">4</tspan></text>
    <text transform="matrix(0,-1,1,0,0,0)" sodipodi:linespacing="100%" id="text4397-6" y="280.96436" x="-932.14594" style="font-size:9.99999809px;font-style:normal;font-variant:normal;font-weight:normal;font-stretch:normal;text-align:center;line-height:100%;letter-spacing:0px;word-spacing:0px;text-anchor:middle;fill:#000000;fill-opacity:1;stroke:none;font-family:LMSans10;-inkscape-font-specification:LMSans10" xml:space="preserve"><tspan style="line-height:100%" y="280.96436" x="-932.14594" id="tspan4399-5" sodipodi:role="line">DLC</tspan><tspan style="line-height:100%" id="tspan4431" y="290.96436" x="-932.14594" sodipodi:role="line">Data length code</tspan></text>
    <text xml:space="preserve" style="font-size:10px;font-style:normal;font-variant:normal;font-weight:normal;font-stretch:normal;line-height:125%;letter-spacing:0px;word-spacing:0px;fill:#000000;fill-opacity:1;stroke:none;font-family:LMSans10;-inkscape-font-specification:LMSans10" x="127.85095" y="826.15192" id="text4039" sodipodi:linespacing="125%"><tspan sodipodi:role="line" id="tspan4041" x="127.85095" y="826.15192">1</tspan></text>
    <text xml:space="preserve" style="font-size:10px;font-style:normal;font-variant:normal;font-weight:normal;font-stretch:normal;line-height:125%;letter-spacing:0px;word-spacing:0px;fill:#000000;fill-opacity:1;stroke:none;font-family:LMSans10;-inkscape-font-specification:LMSans10" x="127.92095" y="840.65192" id="text4043" sodipodi:linespacing="125%"><tspan sodipodi:role="line" id="tspan4045" x="127.92095" y="840.65192">0</tspan></text>
  </g>
</svg>